<svg xmlns="http://www.w3.org/2000/svg" viewBox="0 0 100 100" fill="none">
  <defs>
    <linearGradient id="grad1" x1="0%" y1="0%" x2="100%" y2="100%">
      <stop offset="0%" style="stop-color:#10b981;stop-opacity:1" />
      <stop offset="100%" style="stop-color:#0f766e;stop-opacity:1" />
    </linearGradient>
  </defs>
  
  <!-- Background Container -->
  <rect x="0" y="0" width="100" height="100" rx="24" fill="url(#grad1)" />
  
  <!-- Palm Tree Icon (White) -->
  <g transform="translate(20, 20) scale(2.4)" stroke="white" stroke-width="2" stroke-linecap="round" stroke-linejoin="round">
    <path d="M13 8c0-2.76-2.46-5-5.5-5S2 5.24 2 8h2l1-1 1 1h4" />
    <path d="M13 7.14A5.82 5.82 0 0 1 16.5 6c3.04 0 5.5 2.24 5.5 5h-3l-1-1-1 1h-3" />
    <path d="M5.8 9.51 4 10l-.41 1.13A5.82 5.82 0 0 0 2 14h3l1-1 1 1h3" />
    <path d="M9 9.71V22" />
  </g>
  
  <!-- Pill Icon (Light Emerald, Rotated) -->
  <g transform="translate(65, 65) rotate(45) scale(1.2)" stroke="#d1fae5" stroke-width="2.5" stroke-linecap="round" stroke-linejoin="round">
    <rect x="2" y="6" width="20" height="12" rx="6" />
    <path d="M12 6v12" />
  </g>
</svg>
